<?xml version="1.0" standalone="yes"?>
<svg xmlns="http://www.w3.org/2000/svg" width="1694" height="1646">
<path style="fill:#010101; stroke:none;" d="M0 0L0 1646L1694 1646L1694 0L0 0z"/>
<path style="fill:#ffffff; stroke:none;" d="M804 30.4244C788.864 32.4116 773.237 31.7137 758 33.1698C714.751 37.3027 671.031 44.833 629 55.8843C463.559 99.3835 310.262 193.212 201.424 326C134.462 407.698 84.4579 500.49 52.3441 601C27.4295 678.978 15.0835 762.296 16.9853 844C19.5099 952.46 39.754 1058.24 83.8603 1158C119.984 1239.7 170.214 1315.65 231.09 1381C410.728 1573.84 680.951 1666.91 941 1632.72C1102.67 1611.46 1260.71 1541.48 1382 1431.83C1541.38 1287.74 1642.52 1084.58 1651.96 869C1663 616.912 1550.84 369.035 1354 210.804C1267.52 141.287 1167.51 90.9468 1061 60.5786C1001.35 43.5726 940.67 35.1344 879 30.9105C854.997 29.2665 827.932 27.2825 804 30.4244z"/>
<path style="fill:#010101; stroke:none;" d="M803 80.4244C788.836 82.2839 774.255 81.7893 760 83.1698C719.121 87.1287 677.653 94.4243 638 105.151C447.682 156.636 280.36 277.319 176.811 446C130.527 521.397 97.9393 605.294 80.6003 692C65.4624 767.699 61.9596 846.403 71.1551 923C84.7651 1036.37 123.827 1145.95 185.692 1242C341.995 1484.67 637.286 1620.26 923 1584.72C1200 1550.25 1445.14 1370.03 1549.55 1109C1580.1 1032.62 1596.31 951.812 1601.91 870C1615.63 669.68 1534.89 462.25 1396.96 318C1296.84 213.296 1167.49 138.249 1027 103.127C978.278 90.946 928.983 84.334 879 80.9105C854.684 79.2451 827.242 77.2417 803 80.4244z"/>
<path style="fill:#ffffff; stroke:none;" d="M497 481L497 1134L718 1134L718 886L955 886C1015.88 886 1076.23 888.511 1132 859.742C1151.66 849.602 1170.98 835.848 1185.42 819C1250.14 743.471 1250.43 629.53 1184.71 554C1167.94 534.722 1147.39 519.42 1125 507.309C1058.85 471.532 978.474 481 906 481L497 481z"/>
<path style="fill:#010101; stroke:none;" d="M718 564L718 803L883 803C914.386 803 948.56 806.038 977 790.138C1019.97 766.115 1026.45 709.274 1022.17 665C1020.75 650.374 1018.85 635.785 1013.4 622C1005.86 602.936 994.347 586.395 976 576.312C947.475 560.635 914.367 564 883 564L718 564z"/>
</svg>
