<?xml version="1.0" standalone="yes"?>
<svg xmlns="http://www.w3.org/2000/svg" width="512" height="512">
<path style="fill:#010201; stroke:none;" d="M0 0L0 512L512 512L512 0L0 0z"/>
<path style="fill:#e4e8f3; stroke:none;" d="M110 44L110 47L111 47L110 44z"/>
<path style="fill:#6e7680; stroke:none;" d="M129 59L129 60L383 60L360 59L308 59L129 59M126 60L127 61L126 60z"/>
<path style="fill:#e4e8f3; stroke:none;" d="M121 169L191 169C198.876 169 211.656 166.488 217.891 172.228C226.61 180.256 222 204.941 222 216L222 341C222 352.348 227.08 380.551 217.786 388.566C211.93 393.617 198.279 391 191 391L121 391L121 452L196 452C205.917 452 218.486 450.548 221 463L246 463C247.75 449.942 264.25 449.942 266 463L291 463C293.514 450.548 306.083 452 316 452L391 452L391 433L334 433C323.659 433 312.489 434.153 303 429.175C277.646 415.875 278.475 362.423 303 348.905C312.261 343.8 323.817 345 334 345L391 345L391 304L287 304C276.468 304 255.818 307.922 247.019 301.486C237.571 294.575 242 271.545 242 261L242 142C242 131.01 237.139 104.697 247.044 97.564C255.988 91.1227 276.395 95 287 95L391 95C391 86.2919 394.927 65.1566 384.956 60.858C379.908 58.6817 372.4 60 367 60L327 60L187 60L143 60C137.835 60 129.614 58.4724 125.225 61.7423C118.128 67.028 121 82.3124 121 90L121 169z"/>
<path style="fill:#6e7680; stroke:none;" d="M385 60L386 61L385 60z"/>
<path style="fill:#81b6fd; stroke:none;" d="M386 61L387 62L386 61M122 64L123 65L122 64z"/>
<path style="fill:#6e7680; stroke:none;" d="M389 64L390 65L389 64M121 66L122 67L121 66M390 66L391 67L390 66z"/>
<path style="fill:#81b6fd; stroke:none;" d="M121 67L122 68L121 67M390 67L391 68L390 67M251 95L251 96L391 96C380.02 91.3926 360.944 95 349 95L251 95M247 96L248 97L247 96z"/>
<path style="fill:#6e7680; stroke:none;" d="M248 96L249 97L248 96M246 97L247 98L246 97M243 100L244 101L243 100M242 102L243 103L242 102z"/>
<path style="fill:#81b6fd; stroke:none;" d="M262 116L262 188C273.456 180.422 281.798 171.021 296 168.465C320.973 163.97 337.257 180.314 354 195.91C376.301 216.685 398.4 237.721 421 258.17C429.007 265.415 437.299 277.122 447 281.972C457.715 287.33 480.035 283 492 283L492 116L262 116z"/>
<path style="fill:#6e7680; stroke:none;" d="M422 136L422 137L425 137L422 136z"/>
<path style="fill:#010201; stroke:none;" d="M425 136.428C418.254 137.394 411.729 139.298 406 143.105C367.723 168.542 393.43 226.167 437 219.83C489.014 212.265 476.759 129.017 425 136.428z"/>
<path style="fill:#6e7680; stroke:none;" d="M434 136L434 137L437 137L434 136M417.667 137.333L418.333 137.667L417.667 137.333M440 137L441 138L440 137M415 138L416 139L415 138M443 138L444 139L443 138M412 139L413 140L412 139M446 139L447 140L446 139M410 140L411 141L410 140M448 140L449 141L448 140M408 141L409 142L408 141M450 141L451 142L450 141M406 142L407 143L406 142M451 142L452 143L451 142M405 143L406 144L405 143M453 143L454 144L453 143M454 144L455 145L454 144M402 145L403 146L402 145M401 146L402 147L401 146M457 146L458 147L457 146M400 147L401 148L400 147M458 147L459 148L458 147M399 148L400 149L399 148M459 148L460 149L459 148M398 149L399 150L398 149M460 149L461 150L460 149M397 150L398 151L397 150M396 151L397 152L396 151M463 153L464 154L463 153M394 154L395 155L394 154M464 154L465 155L464 154M393 155L394 156L393 155M425.667 156.333L426.333 156.667L425.667 156.333z"/>
<path style="fill:#81b6fd; stroke:none;" d="M427 156L428 157L427 156z"/>
<path style="fill:#e5e97d; stroke:none;" d="M428 156.529C398.91 159.071 402.929 202.281 432 199.907C459.39 197.67 455.264 154.146 428 156.529z"/>
<path style="fill:#6e7680; stroke:none;" d="M431 156L431 157L434 157L431 156M465 156L466 157L465 156M392 157L393 158L392 157M421 157L422 158L421 157z"/>
<path style="fill:#81b6fd; stroke:none;" d="M422 157L423 158L422 157z"/>
<path style="fill:#6e7680; stroke:none;" d="M436 157L437 158L436 157M419 158L420 159L419 158M439 158L440 159L439 158M391 159L392 160L391 159M417 159L418 160L417 159M416 160L417 161L416 160M442 160L443 161L442 160M467 160L468 161L467 160M390 161L391 162L390 161M443 161L444 162L443 161M468 162L469 163L468 162M389.333 163.667L389.667 164.333L389.333 163.667M446 164L447 165L446 164M469.333 164.667L469.667 165.333L469.333 164.667M411 165L412 166L411 165M447 165L448 166L447 165M388.333 166.667L388.667 167.333L388.333 166.667M410 166L411 167L410 166M448 167L449 168L448 167M470.333 167.667L470.667 168.333L470.333 167.667M295 168L295 169L299 169L295 168M310 168L310 169L314 169L310 168M409 168L410 169L409 168M121 169L121 170L214 170L185 169L121 169z"/>
<path style="fill:#81b6fd; stroke:none;" d="M214 169L215 170L214 169z"/>
<path style="fill:#6e7680; stroke:none;" d="M291.667 169.333L292.333 169.667L291.667 169.333M316.667 169.333L317.333 169.667L316.667 169.333M449 169L450 170L449 169M216 170L217 171L216 170M288 170L289 171L288 170M320 170L321 171L320 170M387 170L387 173L388 173L387 170M408 170L409 171L408 170M285 171L286 172L285 171M323 171L324 172L323 171z"/>
<path style="fill:#81b6fd; stroke:none;" d="M408 171L409 172L408 171z"/>
<path style="fill:#6e7680; stroke:none;" d="M450 171L451 172L450 171M283 172L284 173L283 172M325 172L326 173L325 172z"/>
<path style="fill:#81b6fd; stroke:none;" d="M450 172L451 173L450 172z"/>
<path style="fill:#6e7680; stroke:none;" d="M471 172L471 178L472 178L471 172M281 173L282 174L281 173M327 173L328 174L327 173M407 173L407 176L408 176L407 173M220 174L221 175L220 174M279 174L280 175L279 174M329 174L330 175L329 174M277 175L278 176L277 175M331 175L332 176L331 175M451 175L451 182L452 182L451 175z"/>
<path style="fill:#81b6fd; stroke:none;" d="M221 176L222 177L221 176z"/>
<path style="fill:#6e7680; stroke:none;" d="M276 176L277 177L276 176M332 176L333 177L332 176M221 177L221 384L222 384L222 238L222 197L221 177M273 178L274 179L273 178M335 178L336 179L335 178M272 179L273 180L272 179M336 179L337 180L336 179M471 179L471 184L472 184L471 179M337 180L338 181L337 180z"/>
<path style="fill:#81b6fd; stroke:none;" d="M407 180L408 181L407 180z"/>
<path style="fill:#6e7680; stroke:none;" d="M407.333 181.667L407.667 182.333L407.333 181.667M387 183L387 186L388 186L387 183M266 184L267 185L266 184M450.333 184.667L450.667 185.333L450.333 184.667M265 185L266 186L265 185M343 185L344 186L343 185M408.333 185.667L408.667 186.333L408.333 185.667M264 186L265 187L264 186M344 186L345 187L344 186M263 187L264 188L263 187M345 187L346 188L345 187M449 187L450 188L449 187M262 188L263 189L262 188M298 188L298 189L301 189L298 188z"/>
<path style="fill:#81b6fd; stroke:none;" d="M301.667 188.333L302.333 188.667L301.667 188.333z"/>
<path style="fill:#e5e97d; stroke:none;" d="M262 283L417 283C410.245 273.437 399.555 265.88 391 257.91C376.305 244.222 362.063 230 347 216.715C337.639 208.458 328.711 195.923 317 190.955C300.238 183.845 288.139 192.88 276 203.424C271.545 207.294 264.703 212.305 262.603 218C260.514 223.667 262 232.014 262 238L262 283z"/>
<path style="fill:#81b6fd; stroke:none;" d="M306.667 188.333L307.333 188.667L306.667 188.333z"/>
<path style="fill:#6e7680; stroke:none;" d="M308 188L308 189L311 189L308 188M346 188L347 189L346 188M409 188L410 189L409 188M470 188L471 189L470 188M20 189L20 190L201 190L201 371L202 371L202 189L20 189M295 189L296 190L295 189z"/>
<path style="fill:#81b6fd; stroke:none;" d="M312 189L313 190L312 189z"/>
<path style="fill:#6e7680; stroke:none;" d="M313 189L314 190L313 189M347 189L348 190L347 189M388.333 189.667L388.667 190.333L388.333 189.667M448 189L449 190L448 189z"/>
<path style="fill:#e4e8f3; stroke:none;" d="M20 190L20 322L20 356L21.0278 369.397L33 371L66 371L201 371L201 190L20 190z"/>
<path style="fill:#6e7680; stroke:none;" d="M292 190L293 191L292 190M316 190L317 191L316 190M348 190L349 191L348 190M290 191L291 192L290 191M318 191L319 192L318 191M349 191L350 192L349 191M411 191L412 192L411 191M469.333 191.667L469.667 192.333L469.333 191.667M288 192L289 193L288 192M320 192L321 193L320 192M350 192L351 193L350 192M389 192L390 193L389 192z"/>
<path style="fill:#81b6fd; stroke:none;" d="M412 192L413 193L412 192z"/>
<path style="fill:#6e7680; stroke:none;" d="M446 192L447 193L446 192M287 193L288 194L287 193M321 193L322 194L321 193M445 193L446 194L445 193M444 194L445 195L444 194M468 194L469 195L468 194M284 195L285 196L284 195M324 195L325 196L324 195M390 195L391 196L390 195M415 195L416 196L415 195M443 195L444 196L443 195M283 196L284 197L283 196M325 196L326 197L325 196M416 196L417 197L416 196M467 196L468 197L467 196M282 197L283 198L282 197M326 197L327 198L326 197M391 197L392 198L391 197z"/>
<path style="fill:#81b6fd; stroke:none;" d="M418 197L419 198L418 197z"/>
<path style="fill:#6e7680; stroke:none;" d="M440 197L441 198L440 197M281 198L282 199L281 198M327 198L328 199L327 198z"/>
<path style="fill:#81b6fd; stroke:none;" d="M420 198L421 199L420 198z"/>
<path style="fill:#6e7680; stroke:none;" d="M438 198L439 199L438 198M466 198L467 199L466 198M280 199L281 200L280 199M328 199L329 200L328 199M358 199L359 200L358 199M392 199L393 200L392 199M422 199L423 200L422 199M435.667 199.333L436.333 199.667L435.667 199.333M279 200L280 201L279 200M329 200L330 201L329 200M359 200L360 201L359 200M426 200L426 201L433 201L426 200M465 200L466 201L465 200z"/>
<path style="fill:#81b6fd; stroke:none;" d="M278 201L279 202L278 201z"/>
<path style="fill:#6e7680; stroke:none;" d="M330 201L331 202L330 201M360 201L361 202L360 201z"/>
<path style="fill:#81b6fd; stroke:none;" d="M277 202L278 203L277 202M331 202L332 203L331 202z"/>
<path style="fill:#6e7680; stroke:none;" d="M361 202L362 203L361 202M394 202L395 203L394 202M362 203L363 204L362 203M395 203L396 204L395 203M463 203L464 204L463 203M363 204L364 205L363 204M462 204L463 205L462 204M364 205L365 206L364 205M365 206L366 207L365 206M397 206L398 207L397 206M398 207L399 208L398 207M270 208L271 209L270 208M338 208L339 209L338 208M399 208L400 209L399 208M269 209L270 210L269 209M339 209L340 210L339 209M400 209L401 210L400 209M268 210L269 211L268 210M340 210L341 211L340 210M401 210L402 211L401 210M267 211L268 212L267 211M341 211L342 212L341 211M455 211L456 212L455 211M266 212L267 213L266 212M342 212L343 213L342 212M404 212L405 213L404 212M454 212L455 213L454 212M265 213L266 214L265 213M343 213L344 214L343 213M373 213L374 214L373 213M405 213L406 214L405 213z"/>
<path style="fill:#81b6fd; stroke:none;" d="M79 214L79 215L143 215L123 214L79 214z"/>
<path style="fill:#6e7680; stroke:none;" d="M264 214L265 215L264 214M344 214L345 215L344 214M374 214L375 215L374 214M407 214L408 215L407 214M451 214L452 215L451 214M76 215L77 216L76 215z"/>
<path style="fill:#010201; stroke:none;" d="M101 235L101 320C101 328.499 98.2419 344.912 111 344.912C123.504 344.912 121 328.328 121 320L121 235C128.572 235 140.112 237.089 146.811 232.86C152.778 229.094 152.035 219.422 145.956 216.179C140.684 213.367 131.816 215 126 215C112.149 215 89.908 210.721 77.0046 215.742C69.8427 218.529 68.5044 228.691 75.1088 232.91C81.7673 237.165 93.4283 235 101 235z"/>
<path style="fill:#6e7680; stroke:none;" d="M145 215L146 216L145 215z"/>
<path style="fill:#81b6fd; stroke:none;" d="M263 215L264 216L263 215z"/>
<path style="fill:#6e7680; stroke:none;" d="M345 215L346 216L345 215M375 215L376 216L375 215M408 215L409 216L408 215M449 215L450 216L449 215M74 216L75 217L74 216z"/>
<path style="fill:#81b6fd; stroke:none;" d="M147 216L148 217L147 216M262 216L263 217L262 216M346 216L347 217L346 216z"/>
<path style="fill:#6e7680; stroke:none;" d="M376 216L377 217L376 216M410 216L411 217L410 216M447 216L448 217L447 216M73 217L74 218L73 217M148 217L149 218L148 217z"/>
<path style="fill:#81b6fd; stroke:none;" d="M347 217L348 218L347 217z"/>
<path style="fill:#6e7680; stroke:none;" d="M377 217L378 218L377 217M412.667 217.333L413.333 217.667L412.667 217.333M445 217L446 218L445 217M72 218L73 219L72 218z"/>
<path style="fill:#81b6fd; stroke:none;" d="M149 218L150 219L149 218z"/>
<path style="fill:#6e7680; stroke:none;" d="M378 218L379 219L378 218M415 218L416 219L415 218M442.667 218.333L443.333 218.667L442.667 218.333z"/>
<path style="fill:#81b6fd; stroke:none;" d="M71 219L72 220L71 219z"/>
<path style="fill:#6e7680; stroke:none;" d="M379 219L380 220L379 219M418.667 219.333L419.333 219.667L418.667 219.333M439 219L440 220L439 219M150 220L151 221L150 220M380 220L381 221L380 220M423 220L423 221L428 221L423 220M431 220L431 221L436 221L431 220z"/>
<path style="fill:#81b6fd; stroke:none;" d="M70 221L71 222L70 221z"/>
<path style="fill:#6e7680; stroke:none;" d="M381 221L382 222L381 221M70.3333 222.667L70.6667 223.333L70.3333 222.667z"/>
<path style="fill:#81b6fd; stroke:none;" d="M151 222L152 223L151 222z"/>
<path style="fill:#6e7680; stroke:none;" d="M151 223L151 227L152 227L151 223M354 223L355 224L354 223M355 224L356 225L355 224M70 225L70 228L71 228L70 225M356 225L357 226L356 225M357 226L358 227L357 226M358 227L359 228L358 227M359 228L360 229L359 228M389 228L390 229L389 228M71 229L72 230L71 229z"/>
<path style="fill:#81b6fd; stroke:none;" d="M150 229L151 230L150 229z"/>
<path style="fill:#6e7680; stroke:none;" d="M360 229L361 230L360 229M390 229L391 230L390 229M149 230L150 231L149 230z"/>
<path style="fill:#81b6fd; stroke:none;" d="M361 230L362 231L361 230z"/>
<path style="fill:#6e7680; stroke:none;" d="M391 230L392 231L391 230z"/>
<path style="fill:#81b6fd; stroke:none;" d="M72 231L73 232L72 231M362 231L363 232L362 231z"/>
<path style="fill:#6e7680; stroke:none;" d="M392 231L393 232L392 231z"/>
<path style="fill:#81b6fd; stroke:none;" d="M73 232L74 233L73 232z"/>
<path style="fill:#6e7680; stroke:none;" d="M393 232L394 233L393 232M75 233L76 234L75 233M146 233L147 234L146 233M394 233L395 234L394 233M77.6667 234.333L78.3333 234.667L77.6667 234.333M142.667 234.333L143.333 234.667L142.667 234.333z"/>
<path style="fill:#81b6fd; stroke:none;" d="M144 234L145 235L144 234z"/>
<path style="fill:#6e7680; stroke:none;" d="M395 234L396 235L395 234z"/>
<path style="fill:#81b6fd; stroke:none;" d="M100 235L100 336L101 336L101 266L100 235z"/>
<path style="fill:#6e7680; stroke:none;" d="M396 235L397 236L396 235M369 237L370 238L369 237M370 238L371 239L370 238M371 239L372 240L371 239M372 240L373 241L372 240M373 241L374 242L373 241M374 242L375 243L374 242M404 242L405 243L404 242M375 243L376 244L375 243M405 243L406 244L405 243M376 244L377 245L376 244M406 244L407 245L406 244z"/>
<path style="fill:#81b6fd; stroke:none;" d="M377 245L378 246L377 245z"/>
<path style="fill:#6e7680; stroke:none;" d="M407 245L408 246L407 245M408 246L409 247L408 246M409 247L410 248L409 247M410 248L411 249L410 248M411 249L412 250L411 249M384 251L385 252L384 251M385 252L386 253L385 252M386 253L387 254L386 253M387 254L388 255L387 254M388 255L389 256L388 255M389 256L390 257L389 256M419 256L420 257L419 256M390 257L391 258L390 257M420 257L421 258L420 257M391 258L392 259L391 258M421 258L422 259L421 258z"/>
<path style="fill:#81b6fd; stroke:none;" d="M392 259L393 260L392 259z"/>
<path style="fill:#6e7680; stroke:none;" d="M422 259L423 260L422 259z"/>
<path style="fill:#81b6fd; stroke:none;" d="M393 260L394 261L393 260z"/>
<path style="fill:#6e7680; stroke:none;" d="M423 260L424 261L423 260M424 261L425 262L424 261M425 262L426 263L425 262M426 263L427 264L426 263M427 264L428 265L427 264M399 265L400 266L399 265M400 266L401 267L400 266M401 267L402 268L401 267M402 268L403 269L402 268M403 269L404 270L403 269M404 270L405 271L404 270M405 271L406 272L405 271M435 271L436 272L435 271M406 272L407 273L406 272M436 272L437 273L436 272z"/>
<path style="fill:#81b6fd; stroke:none;" d="M407 273L408 274L407 273z"/>
<path style="fill:#6e7680; stroke:none;" d="M437 273L438 274L437 273z"/>
<path style="fill:#81b6fd; stroke:none;" d="M408 274L409 275L408 274z"/>
<path style="fill:#6e7680; stroke:none;" d="M438 274L439 275L438 274M439 275L440 276L439 275M440 276L441 277L440 276M441 277L442 278L441 277M442 278L443 279L442 278M415 280L416 281L415 280M416 281L417 282L416 281M417 282L418 283L417 282M242 296L243 297L242 296z"/>
<path style="fill:#81b6fd; stroke:none;" d="M242 297L243 298L242 297z"/>
<path style="fill:#6e7680; stroke:none;" d="M243 298L244 299L243 298M246 301L247 302L246 301z"/>
<path style="fill:#81b6fd; stroke:none;" d="M247 302L248 303L247 302z"/>
<path style="fill:#6e7680; stroke:none;" d="M248 302L249 303L248 302z"/>
<path style="fill:#81b6fd; stroke:none;" d="M250.667 303.333L251.333 303.667L250.667 303.333z"/>
<path style="fill:#6e7680; stroke:none;" d="M252 303L252 304L391 304C380.02 299.393 360.944 303 349 303L252 303M120.333 337.667L120.667 338.333L120.333 337.667M101.333 338.667L101.667 339.333L101.333 338.667M119 340L120 341L119 340z"/>
<path style="fill:#81b6fd; stroke:none;" d="M102 341L103 342L102 341z"/>
<path style="fill:#6e7680; stroke:none;" d="M103 342L104 343L103 342z"/>
<path style="fill:#81b6fd; stroke:none;" d="M118 342L119 343L118 342z"/>
<path style="fill:#6e7680; stroke:none;" d="M104 343L105 344L104 343z"/>
<path style="fill:#81b6fd; stroke:none;" d="M117 343L118 344L117 343z"/>
<path style="fill:#6e7680; stroke:none;" d="M106 344L107 345L106 344M115 344L116 345L115 344M108 345L108 346L113 346L108 345z"/>
<path style="fill:#81b6fd; stroke:none;" d="M113 345L114 346L113 345M314 345L314 346L391 346L367 345L314 345M308 346L309 347L308 346z"/>
<path style="fill:#6e7680; stroke:none;" d="M309.667 346.333L310.333 346.667L309.667 346.333z"/>
<path style="fill:#81b6fd; stroke:none;" d="M305 347L306 348L305 347z"/>
<path style="fill:#6e7680; stroke:none;" d="M306 347L307 348L306 347M303 348L304 349L303 348z"/>
<path style="fill:#81b6fd; stroke:none;" d="M301 349L302 350L301 349z"/>
<path style="fill:#6e7680; stroke:none;" d="M300 350L301 351L300 350z"/>
<path style="fill:#81b6fd; stroke:none;" d="M298 351L299 352L298 351z"/>
<path style="fill:#6e7680; stroke:none;" d="M297 352L298 353L297 352M296 353L297 354L296 353M294 355L295 356L294 355M293 356L294 357L293 356M292 357L293 358L292 357z"/>
<path style="fill:#81b6fd; stroke:none;" d="M291 358L292 359L291 358z"/>
<path style="fill:#6e7680; stroke:none;" d="M290 360L291 361L290 360M289 362L290 363L289 362M288 364L289 365L288 364z"/>
<path style="fill:#81b6fd; stroke:none;" d="M287 366L288 367L287 366z"/>
<path style="fill:#6e7680; stroke:none;" d="M312.667 366.333L313.333 366.667L312.667 366.333z"/>
<path style="fill:#e5e97d; stroke:none;" d="M314.004 366.573C311.166 367.398 308.85 369.231 307.742 372.019C304.77 379.499 304.213 406.616 312.044 410.682C319.876 414.748 334.333 412 343 412L413 412C421.182 412 434.549 414.527 441.956 410.682C449.747 406.637 449.274 379.482 446.258 372.043C445.153 369.318 442.743 367.526 439.996 366.653C429.384 363.278 414.109 366 403 366L343 366C334.093 366 322.59 364.075 314.004 366.573z"/>
<path style="fill:#6e7680; stroke:none;" d="M440 366L441 367L440 366M287 367L288 368L287 367z"/>
<path style="fill:#81b6fd; stroke:none;" d="M442 367L443 368L442 367z"/>
<path style="fill:#6e7680; stroke:none;" d="M309 368L310 369L309 368z"/>
<path style="fill:#81b6fd; stroke:none;" d="M20 370L21 371L20 370M286 370L287 371L286 370z"/>
<path style="fill:#6e7680; stroke:none;" d="M286 371L286 376L287 376L286 371M307 371L308 372L307 371M446 371L447 372L446 371M306 373L306 405L307 405L306 373M447 374L447 404L448 404L447 374M220 385L221 386L220 385z"/>
<path style="fill:#81b6fd; stroke:none;" d="M219 387L220 388L219 387M218 388L219 389L218 388M217 389L218 390L217 389z"/>
<path style="fill:#6e7680; stroke:none;" d="M214 390L215 391L214 390z"/>
<path style="fill:#81b6fd; stroke:none;" d="M215 390L216 391L215 390z"/>
<path style="fill:#6e7680; stroke:none;" d="M286 403L286 407L287 407L286 403M307 406L308 407L307 406M446 406L447 407L446 406z"/>
<path style="fill:#81b6fd; stroke:none;" d="M286 407L287 408L286 407z"/>
<path style="fill:#6e7680; stroke:none;" d="M308 408L309 409L308 408M309 409L310 410L309 409M444 409L445 410L444 409M287 410L288 411L287 410z"/>
<path style="fill:#81b6fd; stroke:none;" d="M287 411L288 412L287 411z"/>
<path style="fill:#6e7680; stroke:none;" d="M312 411L313 412L312 411z"/>
<path style="fill:#81b6fd; stroke:none;" d="M313 411L314 412L313 411z"/>
<path style="fill:#6e7680; stroke:none;" d="M440.667 411.333L441.333 411.667L440.667 411.333M288 413L289 414L288 413M289 415L290 416L289 415M290 417L291 418L290 417z"/>
<path style="fill:#81b6fd; stroke:none;" d="M291 419L292 420L291 419z"/>
<path style="fill:#6e7680; stroke:none;" d="M292 420L293 421L292 420M293 421L294 422L293 421M297 425L298 426L297 425M298 426L299 427L298 426z"/>
<path style="fill:#81b6fd; stroke:none;" d="M299 427L300 428L299 427z"/>
<path style="fill:#6e7680; stroke:none;" d="M301 428L302 429L301 428M303 429L304 430L303 429z"/>
<path style="fill:#81b6fd; stroke:none;" d="M305 430L306 431L305 430z"/>
<path style="fill:#6e7680; stroke:none;" d="M306 430L307 431L306 430z"/>
<path style="fill:#81b6fd; stroke:none;" d="M308 431L309 432L308 431z"/>
<path style="fill:#6e7680; stroke:none;" d="M309 431L310 432L309 431z"/>
<path style="fill:#81b6fd; stroke:none;" d="M313 432L313 433L316 433L313 432z"/>
<path style="fill:#6e7680; stroke:none;" d="M316 432L316 433L391 433L368 432L316 432M121 452L121 453L212 453L184 452L121 452z"/>
<path style="fill:#81b6fd; stroke:none;" d="M212 452L213 453L212 452M254 452L255 453L254 452z"/>
<path style="fill:#6e7680; stroke:none;" d="M255.667 452.333L256.333 452.667L255.667 452.333z"/>
<path style="fill:#81b6fd; stroke:none;" d="M257 452L258 453L257 452M299 452L300 453L299 452z"/>
<path style="fill:#6e7680; stroke:none;" d="M300 452L300 453L391 453L363 452L300 452M214 453L215 454L214 453M251 453L252 454L251 453M260 453L261 454L260 453M297 453L298 454L297 453M216 454L217 455L216 454M295 454L296 455L295 454M217 455L218 456L217 455z"/>
<path style="fill:#81b6fd; stroke:none;" d="M248 455L249 456L248 455M263 455L264 456L263 455z"/>
<path style="fill:#6e7680; stroke:none;" d="M294 455L295 456L294 455M218 456L219 457L218 456M293 456L294 457L293 456z"/>
<path style="fill:#81b6fd; stroke:none;" d="M219 457L220 458L219 457z"/>
<path style="fill:#6e7680; stroke:none;" d="M247 457L248 458L247 457M264 457L265 458L264 457z"/>
<path style="fill:#81b6fd; stroke:none;" d="M292 457L293 458L292 457M246 458L247 459L246 458M265 458L266 459L265 458M220 459L221 460L220 459z"/>
<path style="fill:#6e7680; stroke:none;" d="M246 459L247 460L246 459M265 459L266 460L265 459z"/>
<path style="fill:#81b6fd; stroke:none;" d="M291 459L292 460L291 459z"/>
<path style="fill:#6e7680; stroke:none;" d="M220.333 460.667L220.667 461.333L220.333 460.667M291.333 460.667L291.667 461.333L291.333 460.667z"/>
</svg>
